<?xml version="1.0" encoding="UTF-8" standalone="no"?>
<!DOCTYPE svg PUBLIC "-//W3C//DTD SVG 1.1//EN" "http://www.w3.org/Graphics/SVG/1.1/DTD/svg11.dtd">
<svg xmlns="http://www.w3.org/2000/svg" version="1.1" viewBox="0.00 0.00 1024.00 1024.00">
<g stroke-width="2.00" fill="none" stroke-linecap="butt">
<path stroke="#f2a38b" vector-effect="non-scaling-stroke" d="
  M 541.68 416.03
  L 541.31 287.05
  A 0.39 0.38 0.0 0 0 540.92 286.67
  L 468.13 286.67
  Q 467.56 286.67 467.56 287.12
  L 467.79 475.57
  A 0.76 0.75 -5.6 0 1 467.18 476.31
  Q 466.61 476.42 466.06 476.34"
/>
<path stroke="#ec918c" vector-effect="non-scaling-stroke" d="
  M 466.06 476.34
  L 358.15 476.46
  A 0.66 0.66 0.0 0 1 357.49 475.80
  L 357.34 287.53
  A 0.80 0.80 0.0 0 0 356.53 286.73
  L 281.09 286.80
  Q 279.98 286.80 279.98 287.91
  L 280.17 738.34
  A 0.67 0.67 0.0 0 0 280.84 739.01
  L 356.53 738.85
  A 0.89 0.88 -0.0 0 0 357.42 737.97
  L 357.48 551.29
  Q 357.48 550.25 358.52 550.24
  L 465.64 550.03"
/>
<path stroke="#f2a38b" vector-effect="non-scaling-stroke" d="
  M 465.64 550.03
  Q 466.77 549.89 467.38 550.17
  Q 467.72 550.32 467.73 550.70
  L 467.89 738.12
  A 0.74 0.73 90.0 0 0 468.62 738.86
  L 540.76 738.74
  A 0.75 0.75 0.0 0 0 541.51 737.99
  L 541.39 601.78
  A 0.37 0.35 67.3 0 1 541.48 601.54
  Q 541.97 600.95 542.60 601.90"
/>
<path stroke="#f5af89" vector-effect="non-scaling-stroke" d="
  M 542.60 601.90
  Q 544.52 604.12 548.29 609.21
  Q 592.31 668.65 642.33 730.32"
/>
<path stroke="#f8b888" vector-effect="non-scaling-stroke" d="
  M 642.33 730.32
  Q 644.53 732.98 646.81 735.60
  C 651.31 740.79 656.56 743.69 663.31 740.45
  Q 666.23 739.04 670.23 733.84
  Q 687.91 710.84 706.45 687.64
  A 1.35 1.35 0.0 0 0 706.43 685.93
  Q 674.63 647.96 644.08 609.24"
/>
<path stroke="#f5af89" vector-effect="non-scaling-stroke" d="
  M 644.08 609.24
  L 566.45 511.59
  A 0.93 0.92 45.3 0 1 566.45 510.44
  Q 616.00 448.71 680.23 370.00
  Q 692.61 354.84 705.23 339.22
  Q 706.19 338.03 705.22 336.84
  L 663.54 286.02
  A 3.87 3.87 0.0 0 0 660.30 284.62
  C 654.10 285.04 650.35 284.57 646.11 289.86
  Q 619.77 322.64 596.38 352.12
  C 579.71 373.13 562.61 395.71 545.30 417.28
  Q 543.84 419.10 542.31 420.56
  A 0.31 0.31 0.0 0 1 541.79 420.34
  L 541.68 416.03"
/>
<path stroke="#f16a19" vector-effect="non-scaling-stroke" d="
  M 644.08 609.24
  Q 642.55 611.99 640.48 608.49
  Q 640.13 607.90 639.80 608.50
  Q 638.87 610.22 638.58 612.26
  Q 638.11 615.57 637.46 618.49
  Q 636.98 620.68 637.21 622.42
  Q 637.48 624.49 637.66 626.59
  C 637.77 627.86 637.08 628.81 637.82 630.02
  Q 638.10 630.49 638.11 631.04
  Q 638.15 634.27 637.95 637.38
  Q 637.76 640.46 637.83 643.66
  Q 638.00 651.63 638.28 658.70
  Q 638.33 660.05 638.60 661.39
  Q 638.82 662.45 638.77 663.53
  Q 638.68 665.95 639.06 668.57
  Q 639.47 671.42 639.28 674.60
  Q 639.25 675.05 639.02 674.66
  Q 638.96 674.54 638.88 674.43
  Q 638.49 673.83 638.14 674.46
  L 637.25 676.08
  A 0.69 0.69 0.0 0 0 637.35 676.87
  Q 638.34 677.95 637.89 679.61
  Q 637.83 679.86 637.57 679.92
  Q 637.12 680.04 637.18 680.50
  Q 637.33 681.64 637.65 682.67
  Q 638.07 684.05 639.39 684.33
  A 0.52 0.52 0.0 0 1 639.79 684.73
  Q 640.32 687.16 639.07 688.42
  A 0.11 0.11 0.0 0 0 639.10 688.60
  L 639.74 688.90
  Q 640.11 689.07 640.11 689.49
  L 640.11 697.68
  Q 640.11 698.19 639.82 698.61
  Q 638.70 700.24 639.07 702.14
  Q 639.17 702.61 638.80 702.93
  Q 638.57 703.12 638.61 703.39
  Q 638.70 704.08 639.38 703.91
  Q 640.13 703.72 640.12 704.50
  Q 640.09 709.75 640.12 715.00
  Q 640.13 715.43 640.37 715.79
  Q 641.53 717.50 641.44 719.53
  Q 641.43 719.61 641.51 719.62
  Q 641.64 719.65 641.77 719.70
  Q 641.88 719.74 641.89 719.62
  L 641.89 718.49
  Q 641.89 717.81 642.34 718.32
  Q 644.33 720.61 643.16 723.67
  Q 643.09 723.87 643.20 724.05
  Q 643.28 724.18 643.38 724.31
  Q 643.75 724.79 643.24 725.14
  Q 642.74 725.48 642.21 725.29
  Q 641.74 725.13 641.86 724.64
  Q 641.92 724.43 641.89 724.21
  Q 641.81 723.46 641.25 723.97
  Q 640.27 724.86 640.10 726.06
  Q 640.09 726.12 640.15 726.13
  Q 640.29 726.16 640.44 726.11
  A 0.04 0.04 0.0 0 0 640.42 726.04
  Q 640.24 726.08 640.23 725.88
  Q 640.23 725.75 640.34 725.71
  Q 640.53 725.63 640.74 725.63
  Q 641.35 725.61 641.37 726.22
  Q 641.38 726.71 641.35 727.15
  Q 641.32 727.59 641.57 727.22
  Q 641.66 727.09 641.81 727.15
  Q 642.07 727.25 642.12 727.52
  Q 642.26 728.28 642.82 728.72
  Q 643.45 729.22 643.30 729.51
  Q 643.10 729.88 642.33 730.32"
/>
<path stroke="#eb551c" vector-effect="non-scaling-stroke" d="
  M 542.60 601.90
  Q 543.68 601.49 542.91 599.46
  Q 542.81 599.18 543.02 598.98
  L 543.23 598.77
  Q 543.56 598.43 543.39 597.99
  Q 542.12 594.58 541.94 592.12
  Q 541.67 588.29 541.95 584.64
  C 542.11 582.59 541.80 580.53 541.94 578.48
  Q 542.09 576.27 542.07 574.09
  Q 541.89 558.20 542.45 544.48
  Q 542.64 540.10 542.52 536.21
  Q 542.40 531.97 542.54 527.79
  Q 542.67 523.56 542.70 519.33
  Q 542.71 518.07 542.54 516.67
  Q 542.30 514.78 542.29 514.00
  Q 542.11 499.77 541.83 485.74
  Q 541.83 485.70 541.83 485.67
  Q 542.03 479.24 541.93 469.00
  Q 541.86 462.24 542.56 454.01
  Q 542.76 451.72 542.97 449.34
  Q 543.18 446.97 543.18 444.70
  Q 543.17 443.43 543.44 442.37
  Q 543.74 441.18 543.43 440.04
  Q 543.29 439.54 543.46 439.05
  C 543.94 437.73 543.26 436.57 543.45 435.20
  Q 544.12 430.31 543.57 424.10
  Q 543.50 423.30 543.21 422.56
  Q 543.09 422.27 542.83 422.09
  L 541.10 420.88
  A 0.39 0.39 0.0 0 1 541.15 420.21
  Q 541.49 420.04 541.26 419.69
  Q 541.03 419.35 541.11 418.93
  L 541.68 416.03"
/>
<path stroke="#e2371f" vector-effect="non-scaling-stroke" d="
  M 465.64 550.03
  L 465.93 549.73
  Q 466.28 549.38 465.79 549.30
  Q 464.04 549.00 461.93 549.15
  Q 461.15 549.20 461.00 548.46
  A 0.26 0.26 0.0 0 1 461.29 548.15
  Q 461.49 548.18 461.64 548.04
  Q 461.98 547.73 461.62 547.43
  Q 461.02 546.91 460.98 546.21
  A 0.49 0.49 0.0 0 1 461.19 545.77
  Q 461.36 545.64 461.58 545.58
  A 0.43 0.43 0.0 0 0 461.83 544.94
  Q 461.52 544.44 461.13 544.15
  Q 460.81 543.91 460.68 543.53
  Q 460.19 542.00 460.47 540.62
  Q 460.99 538.03 460.54 534.99
  Q 460.25 533.00 460.59 531.14
  Q 460.97 529.03 460.96 527.02
  Q 460.95 525.25 461.35 523.39
  Q 461.74 521.60 461.76 519.61
  Q 461.77 518.17 461.96 516.97
  C 462.16 515.76 461.63 514.39 462.61 513.17
  Q 462.71 513.05 462.56 513.11
  Q 462.43 513.16 462.29 513.02
  Q 462.21 512.94 462.22 512.83
  Q 462.35 511.50 462.75 510.22
  Q 463.12 509.04 463.22 507.70
  Q 463.95 498.61 464.17 490.18
  Q 464.19 489.39 464.57 486.86
  Q 464.81 485.20 464.59 483.35
  Q 464.52 482.73 464.86 482.21
  L 466.47 479.78
  A 0.57 0.55 40.9 0 0 466.41 479.09
  Q 466.25 478.91 465.97 478.85
  Q 465.69 478.78 465.67 478.49
  Q 465.66 478.23 465.79 478.24
  Q 466.22 478.28 466.10 477.80
  Q 465.95 477.22 466.06 476.34"
/>
<path stroke="#f8b888" vector-effect="non-scaling-stroke" d="
  M 693.23 513.31
  Q 692.70 512.64 693.24 511.97
  L 770.73 415.89
  Q 771.43 415.03 770.69 414.19
  Q 764.16 406.81 757.58 398.69
  Q 739.96 376.93 723.56 356.42
  A 0.41 0.41 0.0 0 0 722.92 356.42
  Q 703.37 379.92 685.11 402.78
  Q 638.89 460.65 598.65 510.87
  A 0.77 0.76 -44.7 0 0 598.64 511.81
  C 612.73 529.77 626.81 547.82 641.24 565.54
  Q 682.95 616.75 723.78 668.14
  A 0.91 0.90 -44.8 0 0 725.19 668.14
  L 771.45 610.38
  A 0.20 0.20 0.0 0 0 771.45 610.12
  Q 756.63 592.86 744.48 577.54
  Q 719.41 545.93 695.28 515.90
  Q 694.23 514.60 693.23 513.31"
/>
</g>
<path fill="#fcfdf8" d="
  M 0.00 0.00
  L 1024.00 0.00
  L 1024.00 1024.00
  L 0.00 1024.00
  L 0.00 0.00
  Z
  M 541.68 416.03
  L 541.31 287.05
  A 0.39 0.38 0.0 0 0 540.92 286.67
  L 468.13 286.67
  Q 467.56 286.67 467.56 287.12
  L 467.79 475.57
  A 0.76 0.75 -5.6 0 1 467.18 476.31
  Q 466.61 476.42 466.06 476.34
  L 358.15 476.46
  A 0.66 0.66 0.0 0 1 357.49 475.80
  L 357.34 287.53
  A 0.80 0.80 0.0 0 0 356.53 286.73
  L 281.09 286.80
  Q 279.98 286.80 279.98 287.91
  L 280.17 738.34
  A 0.67 0.67 0.0 0 0 280.84 739.01
  L 356.53 738.85
  A 0.89 0.88 -0.0 0 0 357.42 737.97
  L 357.48 551.29
  Q 357.48 550.25 358.52 550.24
  L 465.64 550.03
  Q 466.77 549.89 467.38 550.17
  Q 467.72 550.32 467.73 550.70
  L 467.89 738.12
  A 0.74 0.73 90.0 0 0 468.62 738.86
  L 540.76 738.74
  A 0.75 0.75 0.0 0 0 541.51 737.99
  L 541.39 601.78
  A 0.37 0.35 67.3 0 1 541.48 601.54
  Q 541.97 600.95 542.60 601.90
  Q 544.52 604.12 548.29 609.21
  Q 592.31 668.65 642.33 730.32
  Q 644.53 732.98 646.81 735.60
  C 651.31 740.79 656.56 743.69 663.31 740.45
  Q 666.23 739.04 670.23 733.84
  Q 687.91 710.84 706.45 687.64
  A 1.35 1.35 0.0 0 0 706.43 685.93
  Q 674.63 647.96 644.08 609.24
  L 566.45 511.59
  A 0.93 0.92 45.3 0 1 566.45 510.44
  Q 616.00 448.71 680.23 370.00
  Q 692.61 354.84 705.23 339.22
  Q 706.19 338.03 705.22 336.84
  L 663.54 286.02
  A 3.87 3.87 0.0 0 0 660.30 284.62
  C 654.10 285.04 650.35 284.57 646.11 289.86
  Q 619.77 322.64 596.38 352.12
  C 579.71 373.13 562.61 395.71 545.30 417.28
  Q 543.84 419.10 542.31 420.56
  A 0.31 0.31 0.0 0 1 541.79 420.34
  L 541.68 416.03
  Z
  M 693.23 513.31
  Q 692.70 512.64 693.24 511.97
  L 770.73 415.89
  Q 771.43 415.03 770.69 414.19
  Q 764.16 406.81 757.58 398.69
  Q 739.96 376.93 723.56 356.42
  A 0.41 0.41 0.0 0 0 722.92 356.42
  Q 703.37 379.92 685.11 402.78
  Q 638.89 460.65 598.65 510.87
  A 0.77 0.76 -44.7 0 0 598.64 511.81
  C 612.73 529.77 626.81 547.82 641.24 565.54
  Q 682.95 616.75 723.78 668.14
  A 0.91 0.90 -44.8 0 0 725.19 668.14
  L 771.45 610.38
  A 0.20 0.20 0.0 0 0 771.45 610.12
  Q 756.63 592.86 744.48 577.54
  Q 719.41 545.93 695.28 515.90
  Q 694.23 514.60 693.23 513.31
  Z"
/>
<path fill="#ee601a" d="
  M 644.08 609.24
  Q 642.55 611.99 640.48 608.49
  Q 640.13 607.90 639.80 608.50
  Q 638.87 610.22 638.58 612.26
  Q 638.11 615.57 637.46 618.49
  Q 636.98 620.68 637.21 622.42
  Q 637.48 624.49 637.66 626.59
  C 637.77 627.86 637.08 628.81 637.82 630.02
  Q 638.10 630.49 638.11 631.04
  Q 638.15 634.27 637.95 637.38
  Q 637.76 640.46 637.83 643.66
  Q 638.00 651.63 638.28 658.70
  Q 638.33 660.05 638.60 661.39
  Q 638.82 662.45 638.77 663.53
  Q 638.68 665.95 639.06 668.57
  Q 639.47 671.42 639.28 674.60
  Q 639.25 675.05 639.02 674.66
  Q 638.96 674.54 638.88 674.43
  Q 638.49 673.83 638.14 674.46
  L 637.25 676.08
  A 0.69 0.69 0.0 0 0 637.35 676.87
  Q 638.34 677.95 637.89 679.61
  Q 637.83 679.86 637.57 679.92
  Q 637.12 680.04 637.18 680.50
  Q 637.33 681.64 637.65 682.67
  Q 638.07 684.05 639.39 684.33
  A 0.52 0.52 0.0 0 1 639.79 684.73
  Q 640.32 687.16 639.07 688.42
  A 0.11 0.11 0.0 0 0 639.10 688.60
  L 639.74 688.90
  Q 640.11 689.07 640.11 689.49
  L 640.11 697.68
  Q 640.11 698.19 639.82 698.61
  Q 638.70 700.24 639.07 702.14
  Q 639.17 702.61 638.80 702.93
  Q 638.57 703.12 638.61 703.39
  Q 638.70 704.08 639.38 703.91
  Q 640.13 703.72 640.12 704.50
  Q 640.09 709.75 640.12 715.00
  Q 640.13 715.43 640.37 715.79
  Q 641.53 717.50 641.44 719.53
  Q 641.43 719.61 641.51 719.62
  Q 641.64 719.65 641.77 719.70
  Q 641.88 719.74 641.89 719.62
  L 641.89 718.49
  Q 641.89 717.81 642.34 718.32
  Q 644.33 720.61 643.16 723.67
  Q 643.09 723.87 643.20 724.05
  Q 643.28 724.18 643.38 724.31
  Q 643.75 724.79 643.24 725.14
  Q 642.74 725.48 642.21 725.29
  Q 641.74 725.13 641.86 724.64
  Q 641.92 724.43 641.89 724.21
  Q 641.81 723.46 641.25 723.97
  Q 640.27 724.86 640.10 726.06
  Q 640.09 726.12 640.15 726.13
  Q 640.29 726.16 640.44 726.11
  A 0.04 0.04 0.0 0 0 640.42 726.04
  Q 640.24 726.08 640.23 725.88
  Q 640.23 725.75 640.34 725.71
  Q 640.53 725.63 640.74 725.63
  Q 641.35 725.61 641.37 726.22
  Q 641.38 726.71 641.35 727.15
  Q 641.32 727.59 641.57 727.22
  Q 641.66 727.09 641.81 727.15
  Q 642.07 727.25 642.12 727.52
  Q 642.26 728.28 642.82 728.72
  Q 643.45 729.22 643.30 729.51
  Q 643.10 729.88 642.33 730.32
  Q 592.31 668.65 548.29 609.21
  Q 544.52 604.12 542.60 601.90
  Q 543.68 601.49 542.91 599.46
  Q 542.81 599.18 543.02 598.98
  L 543.23 598.77
  Q 543.56 598.43 543.39 597.99
  Q 542.12 594.58 541.94 592.12
  Q 541.67 588.29 541.95 584.64
  C 542.11 582.59 541.80 580.53 541.94 578.48
  Q 542.09 576.27 542.07 574.09
  Q 541.89 558.20 542.45 544.48
  Q 542.64 540.10 542.52 536.21
  Q 542.40 531.97 542.54 527.79
  Q 542.67 523.56 542.70 519.33
  Q 542.71 518.07 542.54 516.67
  Q 542.30 514.78 542.29 514.00
  Q 542.11 499.77 541.83 485.74
  Q 541.83 485.70 541.83 485.67
  Q 542.03 479.24 541.93 469.00
  Q 541.86 462.24 542.56 454.01
  Q 542.76 451.72 542.97 449.34
  Q 543.18 446.97 543.18 444.70
  Q 543.17 443.43 543.44 442.37
  Q 543.74 441.18 543.43 440.04
  Q 543.29 439.54 543.46 439.05
  C 543.94 437.73 543.26 436.57 543.45 435.20
  Q 544.12 430.31 543.57 424.10
  Q 543.50 423.30 543.21 422.56
  Q 543.09 422.27 542.83 422.09
  L 541.10 420.88
  A 0.39 0.39 0.0 0 1 541.15 420.21
  Q 541.49 420.04 541.26 419.69
  Q 541.03 419.35 541.11 418.93
  L 541.68 416.03
  L 541.79 420.34
  A 0.31 0.31 0.0 0 0 542.31 420.56
  Q 543.84 419.10 545.30 417.28
  C 562.61 395.71 579.71 373.13 596.38 352.12
  Q 619.77 322.64 646.11 289.86
  C 650.35 284.57 654.10 285.04 660.30 284.62
  A 3.87 3.87 0.0 0 1 663.54 286.02
  L 705.22 336.84
  Q 706.19 338.03 705.23 339.22
  Q 692.61 354.84 680.23 370.00
  Q 616.00 448.71 566.45 510.44
  A 0.93 0.92 45.3 0 0 566.45 511.59
  L 644.08 609.24
  Z"
/>
<path fill="#e7491d" d="
  M 541.68 416.03
  L 541.11 418.93
  Q 541.03 419.35 541.26 419.69
  Q 541.49 420.04 541.15 420.21
  A 0.39 0.39 0.0 0 0 541.10 420.88
  L 542.83 422.09
  Q 543.09 422.27 543.21 422.56
  Q 543.50 423.30 543.57 424.10
  Q 544.12 430.31 543.45 435.20
  C 543.26 436.57 543.94 437.73 543.46 439.05
  Q 543.29 439.54 543.43 440.04
  Q 543.74 441.18 543.44 442.37
  Q 543.17 443.43 543.18 444.70
  Q 543.18 446.97 542.97 449.34
  Q 542.76 451.72 542.56 454.01
  Q 541.86 462.24 541.93 469.00
  Q 542.03 479.24 541.83 485.67
  Q 541.83 485.70 541.83 485.74
  Q 542.11 499.77 542.29 514.00
  Q 542.30 514.78 542.54 516.67
  Q 542.71 518.07 542.70 519.33
  Q 542.67 523.56 542.54 527.79
  Q 542.40 531.97 542.52 536.21
  Q 542.64 540.10 542.45 544.48
  Q 541.89 558.20 542.07 574.09
  Q 542.09 576.27 541.94 578.48
  C 541.80 580.53 542.11 582.59 541.95 584.64
  Q 541.67 588.29 541.94 592.12
  Q 542.12 594.58 543.39 597.99
  Q 543.56 598.43 543.23 598.77
  L 543.02 598.98
  Q 542.81 599.18 542.91 599.46
  Q 543.68 601.49 542.60 601.90
  Q 541.97 600.95 541.48 601.54
  A 0.37 0.35 67.3 0 0 541.39 601.78
  L 541.51 737.99
  A 0.75 0.75 0.0 0 1 540.76 738.74
  L 468.62 738.86
  A 0.74 0.73 -90.0 0 1 467.89 738.12
  L 467.73 550.70
  Q 467.72 550.32 467.38 550.17
  Q 466.77 549.89 465.64 550.03
  L 465.93 549.73
  Q 466.28 549.38 465.79 549.30
  Q 464.04 549.00 461.93 549.15
  Q 461.15 549.20 461.00 548.46
  A 0.26 0.26 0.0 0 1 461.29 548.15
  Q 461.49 548.18 461.64 548.04
  Q 461.98 547.73 461.62 547.43
  Q 461.02 546.91 460.98 546.21
  A 0.49 0.49 0.0 0 1 461.19 545.77
  Q 461.36 545.64 461.58 545.58
  A 0.43 0.43 0.0 0 0 461.83 544.94
  Q 461.52 544.44 461.13 544.15
  Q 460.81 543.91 460.68 543.53
  Q 460.19 542.00 460.47 540.62
  Q 460.99 538.03 460.54 534.99
  Q 460.25 533.00 460.59 531.14
  Q 460.97 529.03 460.96 527.02
  Q 460.95 525.25 461.35 523.39
  Q 461.74 521.60 461.76 519.61
  Q 461.77 518.17 461.96 516.97
  C 462.16 515.76 461.63 514.39 462.61 513.17
  Q 462.71 513.05 462.56 513.11
  Q 462.43 513.16 462.29 513.02
  Q 462.21 512.94 462.22 512.83
  Q 462.35 511.50 462.75 510.22
  Q 463.12 509.04 463.22 507.70
  Q 463.95 498.61 464.17 490.18
  Q 464.19 489.39 464.57 486.86
  Q 464.81 485.20 464.59 483.35
  Q 464.52 482.73 464.86 482.21
  L 466.47 479.78
  A 0.57 0.55 40.9 0 0 466.41 479.09
  Q 466.25 478.91 465.97 478.85
  Q 465.69 478.78 465.67 478.49
  Q 465.66 478.23 465.79 478.24
  Q 466.22 478.28 466.10 477.80
  Q 465.95 477.22 466.06 476.34
  Q 466.61 476.42 467.18 476.31
  A 0.76 0.75 -5.6 0 0 467.79 475.57
  L 467.56 287.12
  Q 467.56 286.67 468.13 286.67
  L 540.92 286.67
  A 0.39 0.38 -0.0 0 1 541.31 287.05
  L 541.68 416.03
  Z"
/>
<path fill="#dc2420" d="
  M 466.06 476.34
  Q 465.95 477.22 466.10 477.80
  Q 466.22 478.28 465.79 478.24
  Q 465.66 478.23 465.67 478.49
  Q 465.69 478.78 465.97 478.85
  Q 466.25 478.91 466.41 479.09
  A 0.57 0.55 40.9 0 1 466.47 479.78
  L 464.86 482.21
  Q 464.52 482.73 464.59 483.35
  Q 464.81 485.20 464.57 486.86
  Q 464.19 489.39 464.17 490.18
  Q 463.95 498.61 463.22 507.70
  Q 463.12 509.04 462.75 510.22
  Q 462.35 511.50 462.22 512.83
  Q 462.21 512.94 462.29 513.02
  Q 462.43 513.16 462.56 513.11
  Q 462.71 513.05 462.61 513.17
  C 461.63 514.39 462.16 515.76 461.96 516.97
  Q 461.77 518.17 461.76 519.61
  Q 461.74 521.60 461.35 523.39
  Q 460.95 525.25 460.96 527.02
  Q 460.97 529.03 460.59 531.14
  Q 460.25 533.00 460.54 534.99
  Q 460.99 538.03 460.47 540.62
  Q 460.19 542.00 460.68 543.53
  Q 460.81 543.91 461.13 544.15
  Q 461.52 544.44 461.83 544.94
  A 0.43 0.43 0.0 0 1 461.58 545.58
  Q 461.36 545.64 461.19 545.77
  A 0.49 0.49 0.0 0 0 460.98 546.21
  Q 461.02 546.91 461.62 547.43
  Q 461.98 547.73 461.64 548.04
  Q 461.49 548.18 461.29 548.15
  A 0.26 0.26 0.0 0 0 461.00 548.46
  Q 461.15 549.20 461.93 549.15
  Q 464.04 549.00 465.79 549.30
  Q 466.28 549.38 465.93 549.73
  L 465.64 550.03
  L 358.52 550.24
  Q 357.48 550.25 357.48 551.29
  L 357.42 737.97
  A 0.89 0.88 0.0 0 1 356.53 738.85
  L 280.84 739.01
  A 0.67 0.67 0.0 0 1 280.17 738.34
  L 279.98 287.91
  Q 279.98 286.80 281.09 286.80
  L 356.53 286.73
  A 0.80 0.80 0.0 0 1 357.34 287.53
  L 357.49 475.80
  A 0.66 0.66 0.0 0 0 358.15 476.46
  L 466.06 476.34
  Z"
/>
<path fill="#f37317" d="
  M 693.23 513.31
  Q 694.23 514.60 695.28 515.90
  Q 719.41 545.93 744.48 577.54
  Q 756.63 592.86 771.45 610.12
  A 0.20 0.20 0.0 0 1 771.45 610.38
  L 725.19 668.14
  A 0.91 0.90 -44.8 0 1 723.78 668.14
  Q 682.95 616.75 641.24 565.54
  C 626.81 547.82 612.73 529.77 598.64 511.81
  A 0.77 0.76 -44.7 0 1 598.65 510.87
  Q 638.89 460.65 685.11 402.78
  Q 703.37 379.92 722.92 356.42
  A 0.41 0.41 0.0 0 1 723.56 356.42
  Q 739.96 376.93 757.58 398.69
  Q 764.16 406.81 770.69 414.19
  Q 771.43 415.03 770.73 415.89
  L 693.24 511.97
  Q 692.70 512.64 693.23 513.31
  Z"
/>
<path fill="#f37317" d="
  M 644.08 609.24
  Q 674.63 647.96 706.43 685.93
  A 1.35 1.35 0.0 0 1 706.45 687.64
  Q 687.91 710.84 670.23 733.84
  Q 666.23 739.04 663.31 740.45
  C 656.56 743.69 651.31 740.79 646.81 735.60
  Q 644.53 732.98 642.33 730.32
  Q 643.10 729.88 643.30 729.51
  Q 643.45 729.22 642.82 728.72
  Q 642.26 728.28 642.12 727.52
  Q 642.07 727.25 641.81 727.15
  Q 641.66 727.09 641.57 727.22
  Q 641.32 727.59 641.35 727.15
  Q 641.38 726.71 641.37 726.22
  Q 641.35 725.61 640.74 725.63
  Q 640.53 725.63 640.34 725.71
  Q 640.23 725.75 640.23 725.88
  Q 640.24 726.08 640.42 726.04
  A 0.04 0.04 0.0 0 1 640.44 726.11
  Q 640.29 726.16 640.15 726.13
  Q 640.09 726.12 640.10 726.06
  Q 640.27 724.86 641.25 723.97
  Q 641.81 723.46 641.89 724.21
  Q 641.92 724.43 641.86 724.64
  Q 641.74 725.13 642.21 725.29
  Q 642.74 725.48 643.24 725.14
  Q 643.75 724.79 643.38 724.31
  Q 643.28 724.18 643.20 724.05
  Q 643.09 723.87 643.16 723.67
  Q 644.33 720.61 642.34 718.32
  Q 641.89 717.81 641.89 718.49
  L 641.89 719.62
  Q 641.88 719.74 641.77 719.70
  Q 641.64 719.65 641.51 719.62
  Q 641.43 719.61 641.44 719.53
  Q 641.53 717.50 640.37 715.79
  Q 640.13 715.43 640.12 715.00
  Q 640.09 709.75 640.12 704.50
  Q 640.13 703.72 639.38 703.91
  Q 638.70 704.08 638.61 703.39
  Q 638.57 703.12 638.80 702.93
  Q 639.17 702.61 639.07 702.14
  Q 638.70 700.24 639.82 698.61
  Q 640.11 698.19 640.11 697.68
  L 640.11 689.49
  Q 640.11 689.07 639.74 688.90
  L 639.10 688.60
  A 0.11 0.11 0.0 0 1 639.07 688.42
  Q 640.32 687.16 639.79 684.73
  A 0.52 0.52 0.0 0 0 639.39 684.33
  Q 638.07 684.05 637.65 682.67
  Q 637.33 681.64 637.18 680.50
  Q 637.12 680.04 637.57 679.92
  Q 637.83 679.86 637.89 679.61
  Q 638.34 677.95 637.35 676.87
  A 0.69 0.69 0.0 0 1 637.25 676.08
  L 638.14 674.46
  Q 638.49 673.83 638.88 674.43
  Q 638.96 674.54 639.02 674.66
  Q 639.25 675.05 639.28 674.60
  Q 639.47 671.42 639.06 668.57
  Q 638.68 665.95 638.77 663.53
  Q 638.82 662.45 638.60 661.39
  Q 638.33 660.05 638.28 658.70
  Q 638.00 651.63 637.83 643.66
  Q 637.76 640.46 637.95 637.38
  Q 638.15 634.27 638.11 631.04
  Q 638.10 630.49 637.82 630.02
  C 637.08 628.81 637.77 627.86 637.66 626.59
  Q 637.48 624.49 637.21 622.42
  Q 636.98 620.68 637.46 618.49
  Q 638.11 615.57 638.58 612.26
  Q 638.87 610.22 639.80 608.50
  Q 640.13 607.90 640.48 608.49
  Q 642.55 611.99 644.08 609.24
  Z"
/>
</svg>
